<svg width="48" height="48" viewBox="0 0 48 48" fill="none" xmlns="http://www.w3.org/2000/svg">
<g id="Grain">
<path id="Subtract" d="M14.1527 5.93259C10.9539 4.05985 6.77895 5.35606 5.11313 8.66738C1.72917 15.394 2.3441 24.9673 7.43115 33.5578C12.5333 42.1738 20.7631 47.4857 28.4497 47.9646C30.3258 48.0815 30.6929 45.6504 29.3222 44.3641C18.7332 34.4267 26.2473 13.0133 14.1527 5.93259Z" fill="#FF7733"/>
<path id="Subtract_2" d="M33.8465 42.0693C37.0467 43.9398 41.221 42.6439 42.8869 39.3326C46.2708 32.606 45.6559 23.0327 40.5689 14.4422C35.4667 5.82616 27.2369 0.514301 19.5503 0.0354063C17.6742 -0.0814804 17.3073 2.34906 18.6786 3.6348C29.2809 13.576 21.7346 34.9897 33.8465 42.0693Z" fill="#FFBD5C"/>
</g>
</svg>
