<svg width="20" height="21" viewBox="0 0 20 21" fill="none" xmlns="http://www.w3.org/2000/svg">
<g id="Sugar">
<path id="Polygon 1" d="M3.95397 11.1419C4.59572 10.7481 5.40427 10.7481 6.04603 11.1419L8.04603 12.3692C8.63876 12.7329 9 13.3784 9 14.0738V15.9262C9 16.6216 8.63876 17.2671 8.04603 17.6308L6.04603 18.8581C5.40427 19.2519 4.59573 19.2519 3.95397 18.8581L1.95397 17.6308C1.36124 17.2671 1 16.6216 1 15.9262V14.0738C1 13.3784 1.36124 12.7329 1.95397 12.3692L3.95397 11.1419Z" fill="#023A6B"/>
<path id="Polygon 3" d="M8.95397 3.14188C9.59572 2.74808 10.4043 2.74808 11.046 3.14188L13.046 4.36916C13.6388 4.73287 14 5.37838 14 6.0738V7.9262C14 8.62162 13.6388 9.26713 13.046 9.63084L11.046 10.8581C10.4043 11.2519 9.59573 11.2519 8.95397 10.8581L6.95397 9.63084C6.36124 9.26713 6 8.62162 6 7.9262V6.0738C6 5.37838 6.36124 4.73287 6.95397 4.36916L8.95397 3.14188Z" fill="#023A6B"/>
<path id="Polygon 2" d="M13.954 11.1419C14.5957 10.7481 15.4043 10.7481 16.046 11.1419L18.046 12.3692C18.6388 12.7329 19 13.3784 19 14.0738V15.9262C19 16.6216 18.6388 17.2671 18.046 17.6308L16.046 18.8581C15.4043 19.2519 14.5957 19.2519 13.954 18.8581L11.954 17.6308C11.3612 17.2671 11 16.6216 11 15.9262V14.0738C11 13.3784 11.3612 12.7329 11.954 12.3692L13.954 11.1419Z" fill="#FF7733"/>
</g>
</svg>
