<svg width="176" height="44" viewBox="0 0 176 44" fill="none" xmlns="http://www.w3.org/2000/svg">
<g id="Veloce&#226;&#128;&#168;Coffee Shop">
<path d="M7.51201 18.0447L1.29966 0.517038H6.10838L9.40951 10.9095L9.72143 14.4512L10.4232 14.4771L11.7229 17.6052C11.151 17.6913 10.4926 17.7689 9.74742 17.8378C9.01961 17.924 8.27448 17.9929 7.51201 18.0447ZM3.58705 2.45593L0 1.88719L0.0259931 0.517038H3.66503L3.58705 2.45593ZM11.6969 17.6052L9.20156 16.7004L14.5561 0.517038H17.6233L11.6969 17.6052ZM6.23835 2.71445L6.00441 0.517038H8.65571L8.81167 1.3443C8.43043 1.58559 8.02321 1.81825 7.58999 2.0423C7.1741 2.26635 6.72355 2.4904 6.23835 2.71445ZM15.3099 2.45593L11.7229 1.88719L11.7489 0.517038H15.3879L15.3099 2.45593ZM16.4017 2.71445L16.1677 0.517038H18.819L18.975 1.3443C18.5937 1.58559 18.1865 1.81825 17.7533 2.0423C17.3374 2.26635 16.8869 2.4904 16.4017 2.71445Z" fill="#023A6B"/>
<path d="M19.1596 17.631L19.0036 16.8038C19.3848 16.528 19.7921 16.2781 20.2253 16.0541C20.6585 15.83 21.1091 15.6232 21.5769 15.4336L21.6029 17.631H19.1596ZM33.5078 17.631L29.5308 17.2174L31.2204 12.047L33.8197 12.2538C33.837 12.7364 33.8284 13.3051 33.7937 13.96C33.7764 14.5977 33.7417 15.244 33.6897 15.8989C33.6377 16.5366 33.5771 17.114 33.5078 17.631ZM22.4347 2.35253L19.2635 1.88719L19.2895 0.517038H22.4607L22.4347 2.35253ZM30.5965 5.73913L29.7388 0.982373L33.6637 0.517038C33.6984 0.878966 33.6984 1.36154 33.6637 1.96475C33.6291 2.56796 33.5771 3.20564 33.5078 3.87779C33.4385 4.53271 33.3345 5.15315 33.1959 5.73913H30.5965ZM21.213 17.631V0.517038H25.9178V17.631H21.213ZM31.3503 10.3925L25.112 10.134V8.11751L31.3503 7.60047V10.3925ZM33.2998 3.30905L24.93 2.74031L22.9806 0.517038H33.6637L33.2998 3.30905ZM23.1365 17.631L25.086 15.3043L33.3518 14.658L33.4818 17.631H23.1365Z" fill="#023A6B"/>
<path d="M37.9156 17.631V0.517038H42.6204V17.631H37.9156ZM35.8622 17.631L35.7062 16.8038C36.0875 16.528 36.4947 16.2781 36.9279 16.0541C37.3611 15.83 37.8117 15.6232 38.2795 15.4336L38.3055 17.631H35.8622ZM39.9951 17.631L41.9446 15.3043L50.2884 14.5029L50.7302 17.631H39.9951ZM50.7302 17.631L46.5194 17.2174L48.4169 11.0388L51.1201 11.2714C51.1375 11.8747 51.1288 12.564 51.0941 13.3396C51.0768 14.0979 51.0422 14.8562 50.9902 15.6146C50.9382 16.3729 50.8515 17.045 50.7302 17.631ZM39.5012 2.45593L35.9142 1.88719L35.9402 0.517038H39.5792L39.5012 2.45593ZM42.2565 2.71445L42.2305 0.517038H44.6738L44.8298 1.3443C44.4659 1.58559 44.0673 1.81825 43.6341 2.0423C43.2009 2.26635 42.7417 2.4904 42.2565 2.71445Z" fill="#023A6B"/>
<path d="M60.4752 18.1481C59.3315 18.1481 58.2311 17.9585 57.1741 17.5793C56.1344 17.2002 55.1986 16.64 54.3668 15.8989C53.5524 15.1406 52.9026 14.2099 52.4174 13.1069C51.9495 11.9867 51.7155 10.6855 51.7155 9.20329C51.7155 7.32472 52.0968 5.69604 52.8592 4.31727C53.6217 2.9385 54.6528 1.87857 55.9524 1.13749C57.2521 0.379162 58.699 0 60.2933 0C61.4543 0 62.5547 0.206815 63.5944 0.620446C64.6514 1.01684 65.5785 1.62005 66.3757 2.43008C67.1901 3.22288 67.8313 4.19663 68.2991 5.35135C68.767 6.50607 69.001 7.82452 69.001 9.3067C69.001 10.7889 68.767 12.0901 68.2991 13.2103C67.8313 14.3134 67.1988 15.2268 66.4016 15.9506C65.6045 16.6745 64.6948 17.226 63.6724 17.6052C62.65 17.9671 61.5843 18.1481 60.4752 18.1481ZM60.9431 15.6404C61.1857 15.6404 61.4023 15.6232 61.5929 15.5887C61.7835 15.537 61.9742 15.4853 62.1648 15.4336C62.7366 14.9166 63.1958 14.1238 63.5424 13.0552C63.889 11.9694 64.0623 10.7458 64.0623 9.38425C64.0623 8.50529 63.9756 7.66079 63.8023 6.85076C63.6464 6.0235 63.3951 5.29103 63.0485 4.65335C62.7193 3.99843 62.2947 3.48139 61.7749 3.10223C61.2723 2.70584 60.6658 2.50764 59.9554 2.50764C59.6954 2.50764 59.4182 2.54211 59.1236 2.61105C58.8463 2.66275 58.5864 2.74031 58.3438 2.84371C58.0319 3.1367 57.7459 3.55895 57.486 4.11046C57.2261 4.66197 57.0181 5.3255 56.8622 6.10106C56.7235 6.87662 56.6542 7.73835 56.6542 8.68625C56.6542 9.7031 56.7409 10.6424 56.9142 11.5041C57.1048 12.3486 57.382 13.0811 57.7459 13.7015C58.1098 14.322 58.5517 14.8045 59.0716 15.1492C59.6088 15.4767 60.2326 15.6404 60.9431 15.6404Z" fill="#023A6B"/>
<path d="M80.2186 18.0447C78.763 18.1136 77.498 17.9843 76.4236 17.6569C75.3492 17.3294 74.4395 16.8727 73.6943 16.2867C72.9492 15.7007 72.3514 15.0286 71.9008 14.2703C71.4503 13.4947 71.121 12.6847 70.9131 11.8402C70.7051 10.9785 70.6012 10.134 70.6012 9.3067C70.6012 8.13474 70.7831 6.99726 71.147 5.89424C71.5283 4.79123 72.0914 3.80024 72.8366 2.92127C73.5817 2.02507 74.5175 1.31845 75.6438 0.801411C76.7875 0.267137 78.1392 0 79.6988 0C81.0331 0 82.1421 0.180964 83.0259 0.542891C83.9096 0.904818 84.6288 1.28398 85.1833 1.68038L84.3775 5.24794C83.4244 4.45515 82.4107 3.81747 81.3363 3.3349C80.2619 2.8351 79.0143 2.55073 77.5933 2.48179C77.0734 2.94712 76.6402 3.52448 76.2937 4.21387C75.9644 4.88602 75.7218 5.60125 75.5658 6.35958C75.4099 7.1179 75.3319 7.87622 75.3319 8.63455C75.3319 9.84097 75.5225 10.9354 75.9038 11.9177C76.285 12.8829 76.8655 13.6498 77.6453 14.2186C78.4251 14.7873 79.3868 15.0631 80.5305 15.0458L84.9494 13.6498L85.6772 15.7697L80.2186 18.0447ZM81.7782 6.64395L80.7125 1.91304L85.1833 1.68038C85.218 2.0423 85.2093 2.52487 85.1573 3.12808C85.1227 3.71406 85.0533 4.32589 84.9494 4.96357C84.8454 5.60125 84.7241 6.16138 84.5855 6.64395H81.7782Z" fill="#023A6B"/>
<path d="M86.6554 17.631L86.4994 16.8038C86.8806 16.528 87.2879 16.2781 87.7211 16.0541C88.1543 15.83 88.6048 15.6232 89.0727 15.4336L89.0987 17.631H86.6554ZM101.004 17.631L97.0266 17.2174L98.7162 12.047L101.315 12.2538C101.333 12.7364 101.324 13.3051 101.289 13.96C101.272 14.5977 101.238 15.244 101.186 15.8989C101.134 16.5366 101.073 17.114 101.004 17.631ZM89.9305 2.35253L86.7593 1.88719L86.7853 0.517038H89.9565L89.9305 2.35253ZM98.0923 5.73913L97.2346 0.982373L101.16 0.517038C101.194 0.878966 101.194 1.36154 101.16 1.96475C101.125 2.56796 101.073 3.20564 101.004 3.87779C100.934 4.53271 100.83 5.15315 100.692 5.73913H98.0923ZM88.7088 17.631V0.517038H93.4136V17.631H88.7088ZM98.8461 10.3925L92.6078 10.134V8.11751L98.8461 7.60047V10.3925ZM100.796 3.30905L92.4258 2.74031L90.4764 0.517038H101.16L100.796 3.30905ZM90.6323 17.631L92.5818 15.3043L100.848 14.658L100.978 17.631H90.6323Z" fill="#023A6B"/>
<path d="M9.98136 43.8966C8.52574 43.9655 7.26074 43.8363 6.18636 43.5088C5.11198 43.1814 4.20222 42.7246 3.45708 42.1387C2.71195 41.5527 2.11411 40.8805 1.66356 40.1222C1.21301 39.3467 0.883766 38.5366 0.675821 37.6921C0.467876 36.8304 0.363904 35.9859 0.363904 35.1586C0.363904 33.9867 0.545855 32.8492 0.909759 31.7462C1.29099 30.6432 1.85418 29.6522 2.59931 28.7732C3.34445 27.877 4.2802 27.1704 5.40657 26.6533C6.55027 26.1191 7.90191 25.8519 9.4615 25.8519C10.7958 25.8519 11.9048 26.0329 12.7886 26.3948C13.6724 26.7568 14.3915 27.1359 14.946 27.5323L14.1403 31.0999C13.1872 30.3071 12.1734 29.6694 11.0991 29.1868C10.0247 28.687 8.77701 28.4027 7.35605 28.3337C6.83619 28.7991 6.40297 29.3764 6.0564 30.0658C5.72715 30.738 5.48455 31.4532 5.32859 32.2115C5.17263 32.9698 5.09465 33.7282 5.09465 34.4865C5.09465 35.6929 5.28527 36.7873 5.6665 37.7697C6.04773 38.7348 6.62824 39.5018 7.40804 40.0705C8.18783 40.6392 9.14958 40.915 10.2933 40.8978L14.7121 39.5018L15.4399 41.6216L9.98136 43.8966ZM11.5409 32.4959L10.4752 27.765L14.946 27.5323C14.9807 27.8942 14.972 28.3768 14.9201 28.98C14.8854 29.566 14.8161 30.1778 14.7121 30.8155C14.6081 31.4532 14.4868 32.0133 14.3482 32.4959H11.5409Z" fill="#023A6B"/>
<path d="M24.1762 44C23.0325 44 21.9322 43.8104 20.8751 43.4313C19.8354 43.0521 18.8996 42.492 18.0679 41.7509C17.2534 40.9926 16.6036 40.0619 16.1184 38.9589C15.6505 37.8386 15.4166 36.5374 15.4166 35.0552C15.4166 33.1767 15.7978 31.548 16.5603 30.1692C17.3227 28.7904 18.3538 27.7305 19.6534 26.9894C20.9531 26.2311 22.4 25.8519 23.9943 25.8519C25.1553 25.8519 26.2557 26.0588 27.2954 26.4724C28.3525 26.8688 29.2796 27.472 30.0767 28.282C30.8911 29.0748 31.5323 30.0486 32.0002 31.2033C32.468 32.358 32.702 33.6765 32.702 35.1586C32.702 36.6408 32.468 37.942 32.0002 39.0623C31.5323 40.1653 30.8998 41.0787 30.1027 41.8026C29.3055 42.5264 28.3958 43.0779 27.3734 43.4571C26.351 43.819 25.2853 44 24.1762 44ZM24.6441 41.4924C24.8867 41.4924 25.1033 41.4751 25.2939 41.4407C25.4846 41.389 25.6752 41.3372 25.8658 41.2855C26.4376 40.7685 26.8969 39.9757 27.2434 38.9072C27.59 37.8214 27.7633 36.5977 27.7633 35.2362C27.7633 34.3572 27.6766 33.5127 27.5034 32.7027C27.3474 31.8754 27.0961 31.143 26.7496 30.5053C26.4203 29.8504 25.9958 29.3333 25.4759 28.9542C24.9734 28.5578 24.3669 28.3596 23.6564 28.3596C23.3964 28.3596 23.1192 28.394 22.8246 28.463C22.5473 28.5147 22.2874 28.5922 22.0448 28.6957C21.7329 28.9886 21.447 29.4109 21.187 29.9624C20.9271 30.5139 20.7192 31.1774 20.5632 31.953C20.4246 32.7286 20.3552 33.5903 20.3552 34.5382C20.3552 35.555 20.4419 36.4943 20.6152 37.3561C20.8058 38.2006 21.0831 38.933 21.447 39.5535C21.8109 40.1739 22.2527 40.6565 22.7726 41.0012C23.3098 41.3286 23.9336 41.4924 24.6441 41.4924Z" fill="#023A6B"/>
<path d="M33.7553 43.483L33.5994 42.6557C33.9806 42.3799 34.3878 42.13 34.821 41.906C35.2542 41.6819 35.7048 41.4751 36.1727 41.2855L36.1987 43.483H33.7553ZM39.8637 43.483L39.9417 41.5441L43.5287 42.1128L43.5027 43.483H39.8637ZM36.8745 28.2045L33.7033 27.7391L33.7293 26.369H36.9005L36.8745 28.2045ZM45.0363 31.7462L44.1786 26.8343L48.1035 26.369C48.1382 26.7309 48.1382 27.2307 48.1035 27.8684C48.0689 28.4888 48.0169 29.1438 47.9476 29.8331C47.8782 30.5225 47.7743 31.1602 47.6356 31.7462H45.0363ZM35.6528 43.483V26.369H40.3576V43.483H35.6528ZM47.3237 29.1351L39.6817 28.5922L37.7323 26.369H48.1035L47.3237 29.1351ZM46.102 36.9166L39.8637 36.6322V34.4348L46.102 33.9694V36.9166Z" fill="#023A6B"/>
<path d="M49.3918 43.483L49.2358 42.6557C49.6171 42.3799 50.0243 42.13 50.4575 41.906C50.8907 41.6819 51.3413 41.4751 51.8092 41.2855L51.8351 43.483H49.3918ZM55.5002 43.483L55.5782 41.5441L59.1652 42.1128L59.1392 43.483H55.5002ZM52.511 28.2045L49.3398 27.7391L49.3658 26.369H52.537L52.511 28.2045ZM60.6728 31.7462L59.815 26.8343L63.74 26.369C63.7747 26.7309 63.7747 27.2307 63.74 27.8684C63.7053 28.4888 63.6534 29.1438 63.584 29.8331C63.5147 30.5225 63.4108 31.1602 63.2721 31.7462H60.6728ZM51.2893 43.483V26.369H55.994V43.483H51.2893ZM62.9602 29.1351L55.3182 28.5922L53.3687 26.369H63.74L62.9602 29.1351ZM61.7385 36.9166L55.5002 36.6322V34.4348L61.7385 33.9694V36.9166Z" fill="#023A6B"/>
<path d="M65.0283 43.483L64.8723 42.6557C65.2535 42.3799 65.6608 42.13 66.094 41.906C66.5272 41.6819 66.9778 41.4751 67.4456 41.2855L67.4716 43.483H65.0283ZM79.3765 43.483L75.3995 43.0693L77.0891 37.8989L79.6884 38.1058C79.7057 38.5883 79.6971 39.1571 79.6624 39.812C79.6451 40.4497 79.6104 41.096 79.5584 41.7509C79.5064 42.3886 79.4458 42.9659 79.3765 43.483ZM68.3034 28.2045L65.1322 27.7391L65.1582 26.369H68.3294L68.3034 28.2045ZM76.4652 31.5911L75.6075 26.8343L79.5324 26.369C79.5671 26.7309 79.5671 27.2135 79.5324 27.8167C79.4978 28.4199 79.4458 29.0576 79.3765 29.7297C79.3072 30.3846 79.2032 31.0051 79.0646 31.5911H76.4652ZM67.0817 43.483V26.369H71.7865V43.483H67.0817ZM77.2191 36.2444L70.9807 35.9859V33.9694L77.2191 33.4524V36.2444ZM79.1685 29.161L70.7988 28.5922L68.8493 26.369H79.5324L79.1685 29.161ZM69.0052 43.483L70.9547 41.1563L79.2205 40.51L79.3505 43.483H69.0052Z" fill="#023A6B"/>
<path d="M81.7309 43.483L81.5749 42.6557C81.9562 42.3799 82.3634 42.13 82.7966 41.906C83.2298 41.6819 83.6804 41.4751 84.1482 41.2855L84.1742 43.483H81.7309ZM96.0791 43.483L92.1021 43.0693L93.7917 37.8989L96.391 38.1058C96.4083 38.5883 96.3997 39.1571 96.365 39.812C96.3477 40.4497 96.313 41.096 96.261 41.7509C96.2091 42.3886 96.1484 42.9659 96.0791 43.483ZM85.006 28.2045L81.8349 27.7391L81.8609 26.369H85.032L85.006 28.2045ZM93.1679 31.5911L92.3101 26.8343L96.235 26.369C96.2697 26.7309 96.2697 27.2135 96.235 27.8167C96.2004 28.4199 96.1484 29.0576 96.0791 29.7297C96.0098 30.3846 95.9058 31.0051 95.7672 31.5911H93.1679ZM83.7843 43.483V26.369H88.4891V43.483H83.7843ZM93.9217 36.2444L87.6833 35.9859V33.9694L93.9217 33.4524V36.2444ZM95.8711 29.161L87.5014 28.5922L85.5519 26.369H96.235L95.8711 29.161ZM85.7078 43.483L87.6573 41.1563L95.9231 40.51L96.0531 43.483H85.7078Z" fill="#023A6B"/>
<path d="M112.409 43.9741C111.75 43.9741 111.022 43.9138 110.225 43.7932C109.445 43.6725 108.674 43.5002 107.912 43.2761C107.149 43.0349 106.474 42.7419 105.884 42.3972L107.028 39.0623C107.583 39.6827 108.198 40.1911 108.874 40.5875C109.567 40.9667 110.277 41.2425 111.005 41.4148C111.75 41.5872 112.469 41.6906 113.162 41.725C113.665 41.501 114.02 41.208 114.228 40.8461C114.453 40.4841 114.566 40.1308 114.566 39.7861C114.566 39.2863 114.393 38.8555 114.046 38.4935C113.7 38.1316 113.24 37.8042 112.669 37.5112C112.114 37.2182 111.473 36.908 110.745 36.5805C109.983 36.2186 109.229 35.8136 108.484 35.3655C107.739 34.9001 107.115 34.3314 106.612 33.6592C106.11 32.9871 105.858 32.1512 105.858 31.1516C105.858 30.1003 106.153 29.1782 106.742 28.3854C107.349 27.5754 108.18 26.955 109.237 26.5241C110.295 26.076 111.499 25.8519 112.851 25.8519C113.492 25.8519 114.15 25.9036 114.826 26.007C115.519 26.0932 116.169 26.2139 116.775 26.369C117.399 26.5069 117.945 26.662 118.413 26.8343L116.983 30.376C116.204 29.5488 115.337 28.9628 114.384 28.6181C113.448 28.2562 112.469 28.0666 111.447 28.0494C111.031 28.2734 110.728 28.575 110.537 28.9542C110.364 29.3161 110.277 29.6608 110.277 29.9882C110.277 30.4536 110.468 30.8586 110.849 31.2033C111.23 31.5307 111.724 31.841 112.331 32.134C112.955 32.4269 113.639 32.7458 114.384 33.0905C115.164 33.4524 115.918 33.866 116.646 34.3314C117.391 34.7967 117.997 35.3741 118.465 36.0635C118.95 36.7528 119.193 37.6232 119.193 38.6745C119.193 39.812 118.881 40.7771 118.257 41.5699C117.633 42.3627 116.81 42.9659 115.788 43.3796C114.765 43.776 113.639 43.9741 112.409 43.9741ZM110.823 42.6298L105.884 42.3972C105.867 42.0353 105.867 41.5527 105.884 40.9495C105.919 40.329 105.971 39.7 106.04 39.0623C106.127 38.4074 106.231 37.8559 106.352 37.4078H108.458L110.823 42.6298ZM115.476 31.772L113.968 27.0928L118.413 26.8343C118.413 27.3169 118.387 27.8425 118.335 28.4113C118.3 28.98 118.248 29.5574 118.179 30.1434C118.11 30.7121 118.006 31.255 117.867 31.772H115.476Z" fill="#023A6B"/>
<path d="M122.952 43.483V26.369H127.656V43.483H122.952ZM126.383 36.1669V33.7368H135.584V36.1669H126.383ZM133.973 43.483V26.369H138.678V43.483H133.973ZM124.537 28.3079L120.95 27.7391L120.976 26.369H124.615L124.537 28.3079ZM127.293 28.5664L127.267 26.369H129.71L129.866 27.1962C129.502 27.4375 129.103 27.6702 128.67 27.8942C128.237 28.1183 127.778 28.3423 127.293 28.5664ZM135.558 28.3079L131.971 27.7391L131.997 26.369H135.636L135.558 28.3079ZM138.314 28.5664L138.288 26.369H140.731L140.887 27.1962C140.523 27.4375 140.124 27.6702 139.691 27.8942C139.258 28.1183 138.799 28.3423 138.314 28.5664ZM120.898 43.483L120.742 42.6557C121.124 42.3799 121.531 42.13 121.964 41.906C122.397 41.6819 122.848 41.4751 123.316 41.2855L123.342 43.483H120.898ZM126.357 43.483L126.435 41.5441L130.022 42.1128L129.996 43.483H126.357ZM131.919 43.483L131.763 42.6557C132.145 42.3799 132.552 42.13 132.985 41.906C133.418 41.6819 133.869 41.4751 134.337 41.2855L134.363 43.483H131.919ZM137.378 43.483L137.456 41.5441L141.043 42.1128L141.017 43.483H137.378Z" fill="#023A6B"/>
<path d="M150.461 44C149.317 44 148.217 43.8104 147.16 43.4313C146.12 43.0521 145.185 42.492 144.353 41.7509C143.538 40.9926 142.888 40.0619 142.403 38.9589C141.935 37.8386 141.701 36.5374 141.701 35.0552C141.701 33.1767 142.083 31.548 142.845 30.1692C143.608 28.7904 144.639 27.7305 145.938 26.9894C147.238 26.2311 148.685 25.8519 150.279 25.8519C151.44 25.8519 152.541 26.0588 153.58 26.4724C154.637 26.8688 155.564 27.472 156.362 28.282C157.176 29.0748 157.817 30.0486 158.285 31.2033C158.753 32.358 158.987 33.6765 158.987 35.1586C158.987 36.6408 158.753 37.942 158.285 39.0623C157.817 40.1653 157.185 41.0787 156.388 41.8026C155.59 42.5264 154.681 43.0779 153.658 43.4571C152.636 43.819 151.57 44 150.461 44ZM150.929 41.4924C151.172 41.4924 151.388 41.4751 151.579 41.4407C151.769 41.389 151.96 41.3372 152.151 41.2855C152.723 40.7685 153.182 39.9757 153.528 38.9072C153.875 37.8214 154.048 36.5977 154.048 35.2362C154.048 34.3572 153.962 33.5127 153.788 32.7027C153.632 31.8754 153.381 31.143 153.034 30.5053C152.705 29.8504 152.281 29.3333 151.761 28.9542C151.258 28.5578 150.652 28.3596 149.941 28.3596C149.681 28.3596 149.404 28.394 149.11 28.463C148.832 28.5147 148.572 28.5922 148.33 28.6957C148.018 28.9886 147.732 29.4109 147.472 29.9624C147.212 30.5139 147.004 31.1774 146.848 31.953C146.709 32.7286 146.64 33.5903 146.64 34.5382C146.64 35.555 146.727 36.4943 146.9 37.3561C147.091 38.2006 147.368 38.933 147.732 39.5535C148.096 40.1739 148.538 40.6565 149.058 41.0012C149.595 41.3286 150.219 41.4924 150.929 41.4924Z" fill="#023A6B"/>
<path d="M165.889 37.4595L165.967 34.6674C166.261 34.7709 166.556 34.8484 166.85 34.9001C167.145 34.9518 167.422 34.9949 167.682 35.0294C167.942 35.0466 168.167 35.0552 168.358 35.0552C169.034 35.0552 169.58 34.9087 169.996 34.6157C170.411 34.3055 170.715 33.9091 170.905 33.4266C171.113 32.9268 171.217 32.4011 171.217 31.8496C171.217 31.4187 171.165 30.9792 171.061 30.5311C170.957 30.0658 170.801 29.6436 170.593 29.2644C170.403 28.8852 170.152 28.6009 169.84 28.4113L166.357 28.8249L160.014 26.369L168.982 26.1622C170.524 26.1449 171.815 26.4121 172.855 26.9636C173.895 27.5151 174.674 28.2303 175.194 29.1093C175.731 29.9883 176 30.9275 176 31.9271C176 32.944 175.714 33.8747 175.142 34.7192C174.57 35.5464 173.782 36.2013 172.777 36.6839C171.772 37.1665 170.585 37.4164 169.216 37.4336L165.889 37.4595ZM160.04 43.483L159.884 42.6557C160.266 42.3799 160.673 42.13 161.106 41.906C161.539 41.6819 161.99 41.4751 162.458 41.2855L162.484 43.483H160.04ZM166.149 43.483L166.227 41.5441L169.814 42.1128L169.788 43.483H166.149ZM161.938 43.483V26.369H166.642V43.483H161.938ZM163.159 28.2045L159.988 27.7391L160.014 26.369H163.185L163.159 28.2045Z" fill="#023A6B"/>
</g>
</svg>
