<svg width="24" height="24" viewBox="0 0 24 24" fill="none" xmlns="http://www.w3.org/2000/svg">
<g id="Icon">
<path id="Base" fill-rule="evenodd" clip-rule="evenodd" d="M4 7H20V19C20 21.2091 18.2091 23 16 23H8C5.79086 23 4 21.2091 4 19V7ZM9.5 10C9.77614 10 10 10.2239 10 10.5V18.5C10 18.7761 9.77614 19 9.5 19C9.22386 19 9 18.7761 9 18.5V10.5C9 10.2239 9.22386 10 9.5 10ZM15 10.5C15 10.2239 14.7761 10 14.5 10C14.2239 10 14 10.2239 14 10.5V18.5C14 18.7761 14.2239 19 14.5 19C14.7761 19 15 18.7761 15 18.5V10.5Z" fill="#FF7733"/>
<path id="Cup" fill-rule="evenodd" clip-rule="evenodd" d="M12 1C10.3431 1 9 2.34315 9 4H4C3.44772 4 3 4.44772 3 5C3 5.55228 3.44772 6 4 6H9H10H14H15H20C20.5523 6 21 5.55228 21 5C21 4.44772 20.5523 4 20 4H15C15 2.34315 13.6569 1 12 1ZM13 4C13 3.44772 12.5523 3 12 3C11.4477 3 11 3.44772 11 4H13Z" fill="#FF7733"/>
</g>
</svg>
